<mxfile host="app.diagrams.net" modified="2022-08-27T12:21:24.007Z" agent="5.0 (Windows NT 10.0; Win64; x64) AppleWebKit/537.36 (KHTML, like Gecko) Chrome/104.0.5112.81 Safari/537.36" etag="ad5-W8_qwGRCPZ4LGv4E" version="20.2.7" type="github">
  <diagram id="jFHzyZYmKtrDg3yt3vG9" name="Página-1">
    <mxGraphModel dx="2012" dy="662" grid="1" gridSize="10" guides="1" tooltips="1" connect="1" arrows="1" fold="1" page="1" pageScale="1" pageWidth="827" pageHeight="1169" math="0" shadow="0">
      <root>
        <mxCell id="0" />
        <mxCell id="1" parent="0" />
        <mxCell id="pk6v79Xam6D2UYTEoVHg-9" style="edgeStyle=orthogonalEdgeStyle;rounded=0;orthogonalLoop=1;jettySize=auto;html=1;exitX=0.5;exitY=1;exitDx=0;exitDy=0;entryX=0.5;entryY=0;entryDx=0;entryDy=0;startArrow=none;startFill=0;endArrow=none;endFill=0;" edge="1" parent="1" source="pk6v79Xam6D2UYTEoVHg-1" target="pk6v79Xam6D2UYTEoVHg-6">
          <mxGeometry relative="1" as="geometry" />
        </mxCell>
        <mxCell id="pk6v79Xam6D2UYTEoVHg-12" style="edgeStyle=orthogonalEdgeStyle;rounded=0;orthogonalLoop=1;jettySize=auto;html=1;exitX=1;exitY=0.5;exitDx=0;exitDy=0;entryX=0.5;entryY=0;entryDx=0;entryDy=0;startArrow=none;startFill=0;endArrow=none;endFill=0;" edge="1" parent="1" source="pk6v79Xam6D2UYTEoVHg-1" target="pk6v79Xam6D2UYTEoVHg-11">
          <mxGeometry relative="1" as="geometry">
            <Array as="points">
              <mxPoint x="90" y="280" />
              <mxPoint x="170" y="280" />
            </Array>
          </mxGeometry>
        </mxCell>
        <mxCell id="pk6v79Xam6D2UYTEoVHg-26" style="edgeStyle=orthogonalEdgeStyle;rounded=0;orthogonalLoop=1;jettySize=auto;html=1;exitX=1;exitY=0;exitDx=0;exitDy=0;entryX=0;entryY=0.5;entryDx=0;entryDy=0;startArrow=none;startFill=0;endArrow=none;endFill=0;" edge="1" parent="1" source="pk6v79Xam6D2UYTEoVHg-1" target="pk6v79Xam6D2UYTEoVHg-25">
          <mxGeometry relative="1" as="geometry">
            <Array as="points">
              <mxPoint x="90" y="260" />
              <mxPoint x="380" y="260" />
            </Array>
          </mxGeometry>
        </mxCell>
        <mxCell id="pk6v79Xam6D2UYTEoVHg-1" value="Agencia" style="whiteSpace=wrap;html=1;align=center;" vertex="1" parent="1">
          <mxGeometry x="-10" y="240" width="100" height="40" as="geometry" />
        </mxCell>
        <mxCell id="pk6v79Xam6D2UYTEoVHg-3" style="edgeStyle=orthogonalEdgeStyle;rounded=0;orthogonalLoop=1;jettySize=auto;html=1;exitX=0.5;exitY=1;exitDx=0;exitDy=0;entryX=0.25;entryY=0;entryDx=0;entryDy=0;startArrow=none;startFill=0;endArrow=none;endFill=0;" edge="1" parent="1" source="pk6v79Xam6D2UYTEoVHg-2" target="pk6v79Xam6D2UYTEoVHg-1">
          <mxGeometry relative="1" as="geometry" />
        </mxCell>
        <mxCell id="pk6v79Xam6D2UYTEoVHg-2" value="&lt;span style=&quot;border-bottom: 1px dotted&quot;&gt;cod_ag&lt;br&gt;&lt;/span&gt;" style="ellipse;whiteSpace=wrap;html=1;align=center;" vertex="1" parent="1">
          <mxGeometry x="-130" y="160" width="100" height="40" as="geometry" />
        </mxCell>
        <mxCell id="pk6v79Xam6D2UYTEoVHg-7" style="edgeStyle=orthogonalEdgeStyle;rounded=0;orthogonalLoop=1;jettySize=auto;html=1;exitX=0.5;exitY=1;exitDx=0;exitDy=0;startArrow=none;startFill=0;endArrow=none;endFill=0;" edge="1" parent="1" source="pk6v79Xam6D2UYTEoVHg-4" target="pk6v79Xam6D2UYTEoVHg-1">
          <mxGeometry relative="1" as="geometry" />
        </mxCell>
        <mxCell id="pk6v79Xam6D2UYTEoVHg-4" value="nome_ag" style="ellipse;whiteSpace=wrap;html=1;align=center;" vertex="1" parent="1">
          <mxGeometry x="-10" y="140" width="100" height="40" as="geometry" />
        </mxCell>
        <mxCell id="pk6v79Xam6D2UYTEoVHg-8" style="edgeStyle=orthogonalEdgeStyle;rounded=0;orthogonalLoop=1;jettySize=auto;html=1;exitX=0.5;exitY=1;exitDx=0;exitDy=0;entryX=0.75;entryY=0;entryDx=0;entryDy=0;startArrow=none;startFill=0;endArrow=none;endFill=0;" edge="1" parent="1" source="pk6v79Xam6D2UYTEoVHg-5" target="pk6v79Xam6D2UYTEoVHg-1">
          <mxGeometry relative="1" as="geometry" />
        </mxCell>
        <mxCell id="pk6v79Xam6D2UYTEoVHg-5" value="endereço" style="ellipse;whiteSpace=wrap;html=1;align=center;" vertex="1" parent="1">
          <mxGeometry x="110" y="160" width="100" height="40" as="geometry" />
        </mxCell>
        <mxCell id="pk6v79Xam6D2UYTEoVHg-6" value="telefone" style="ellipse;whiteSpace=wrap;html=1;align=center;" vertex="1" parent="1">
          <mxGeometry x="-10" y="320" width="100" height="40" as="geometry" />
        </mxCell>
        <mxCell id="pk6v79Xam6D2UYTEoVHg-17" style="edgeStyle=orthogonalEdgeStyle;rounded=0;orthogonalLoop=1;jettySize=auto;html=1;exitX=0.25;exitY=1;exitDx=0;exitDy=0;entryX=0.5;entryY=0;entryDx=0;entryDy=0;startArrow=none;startFill=0;endArrow=none;endFill=0;" edge="1" parent="1" source="pk6v79Xam6D2UYTEoVHg-10" target="pk6v79Xam6D2UYTEoVHg-14">
          <mxGeometry relative="1" as="geometry" />
        </mxCell>
        <mxCell id="pk6v79Xam6D2UYTEoVHg-18" value="" style="edgeStyle=orthogonalEdgeStyle;rounded=0;orthogonalLoop=1;jettySize=auto;html=1;startArrow=none;startFill=0;endArrow=none;endFill=0;" edge="1" parent="1" source="pk6v79Xam6D2UYTEoVHg-10" target="pk6v79Xam6D2UYTEoVHg-15">
          <mxGeometry relative="1" as="geometry" />
        </mxCell>
        <mxCell id="pk6v79Xam6D2UYTEoVHg-19" style="edgeStyle=orthogonalEdgeStyle;rounded=0;orthogonalLoop=1;jettySize=auto;html=1;exitX=0.75;exitY=1;exitDx=0;exitDy=0;entryX=0.5;entryY=0;entryDx=0;entryDy=0;startArrow=none;startFill=0;endArrow=none;endFill=0;" edge="1" parent="1" source="pk6v79Xam6D2UYTEoVHg-10" target="pk6v79Xam6D2UYTEoVHg-16">
          <mxGeometry relative="1" as="geometry" />
        </mxCell>
        <mxCell id="pk6v79Xam6D2UYTEoVHg-48" style="edgeStyle=orthogonalEdgeStyle;rounded=0;orthogonalLoop=1;jettySize=auto;html=1;exitX=1;exitY=0.5;exitDx=0;exitDy=0;entryX=0;entryY=0.5;entryDx=0;entryDy=0;startArrow=none;startFill=0;endArrow=none;endFill=0;" edge="1" parent="1" source="pk6v79Xam6D2UYTEoVHg-10" target="pk6v79Xam6D2UYTEoVHg-47">
          <mxGeometry relative="1" as="geometry" />
        </mxCell>
        <mxCell id="pk6v79Xam6D2UYTEoVHg-10" value="Cidade" style="whiteSpace=wrap;html=1;align=center;" vertex="1" parent="1">
          <mxGeometry x="120" y="440" width="100" height="40" as="geometry" />
        </mxCell>
        <mxCell id="pk6v79Xam6D2UYTEoVHg-13" style="edgeStyle=orthogonalEdgeStyle;rounded=0;orthogonalLoop=1;jettySize=auto;html=1;exitX=0.5;exitY=1;exitDx=0;exitDy=0;entryX=0.605;entryY=-0.029;entryDx=0;entryDy=0;entryPerimeter=0;startArrow=none;startFill=0;endArrow=none;endFill=0;" edge="1" parent="1" source="pk6v79Xam6D2UYTEoVHg-11" target="pk6v79Xam6D2UYTEoVHg-10">
          <mxGeometry relative="1" as="geometry">
            <Array as="points">
              <mxPoint x="170" y="439" />
            </Array>
          </mxGeometry>
        </mxCell>
        <mxCell id="pk6v79Xam6D2UYTEoVHg-11" value="Relationship" style="shape=rhombus;perimeter=rhombusPerimeter;whiteSpace=wrap;html=1;align=center;" vertex="1" parent="1">
          <mxGeometry x="110" y="300" width="120" height="60" as="geometry" />
        </mxCell>
        <mxCell id="pk6v79Xam6D2UYTEoVHg-14" value="&lt;span style=&quot;border-bottom: 1px dotted&quot;&gt;cod_cidade&lt;br&gt;&lt;/span&gt;" style="ellipse;whiteSpace=wrap;html=1;align=center;" vertex="1" parent="1">
          <mxGeometry x="10" y="545" width="100" height="40" as="geometry" />
        </mxCell>
        <mxCell id="pk6v79Xam6D2UYTEoVHg-15" value="nome_cidade" style="ellipse;whiteSpace=wrap;html=1;align=center;" vertex="1" parent="1">
          <mxGeometry x="120" y="545" width="100" height="40" as="geometry" />
        </mxCell>
        <mxCell id="pk6v79Xam6D2UYTEoVHg-16" value="&lt;span style=&quot;border-bottom: 1px dotted&quot;&gt;uf&lt;/span&gt;" style="ellipse;whiteSpace=wrap;html=1;align=center;" vertex="1" parent="1">
          <mxGeometry x="230" y="545" width="100" height="40" as="geometry" />
        </mxCell>
        <mxCell id="pk6v79Xam6D2UYTEoVHg-20" value="conta_corrente" style="whiteSpace=wrap;html=1;align=center;" vertex="1" parent="1">
          <mxGeometry x="750" y="240" width="100" height="40" as="geometry" />
        </mxCell>
        <mxCell id="pk6v79Xam6D2UYTEoVHg-23" style="edgeStyle=orthogonalEdgeStyle;rounded=0;orthogonalLoop=1;jettySize=auto;html=1;exitX=0.5;exitY=1;exitDx=0;exitDy=0;entryX=0;entryY=0;entryDx=0;entryDy=0;startArrow=none;startFill=0;endArrow=none;endFill=0;" edge="1" parent="1" source="pk6v79Xam6D2UYTEoVHg-21" target="pk6v79Xam6D2UYTEoVHg-20">
          <mxGeometry relative="1" as="geometry">
            <Array as="points">
              <mxPoint x="700" y="240" />
            </Array>
          </mxGeometry>
        </mxCell>
        <mxCell id="pk6v79Xam6D2UYTEoVHg-21" value="num.cta" style="ellipse;whiteSpace=wrap;html=1;align=center;" vertex="1" parent="1">
          <mxGeometry x="650" y="160" width="100" height="40" as="geometry" />
        </mxCell>
        <mxCell id="pk6v79Xam6D2UYTEoVHg-24" style="edgeStyle=orthogonalEdgeStyle;rounded=0;orthogonalLoop=1;jettySize=auto;html=1;exitX=0.5;exitY=1;exitDx=0;exitDy=0;entryX=1;entryY=0.5;entryDx=0;entryDy=0;startArrow=none;startFill=0;endArrow=none;endFill=0;" edge="1" parent="1" source="pk6v79Xam6D2UYTEoVHg-22" target="pk6v79Xam6D2UYTEoVHg-20">
          <mxGeometry relative="1" as="geometry">
            <Array as="points">
              <mxPoint x="900" y="240" />
              <mxPoint x="850" y="240" />
            </Array>
          </mxGeometry>
        </mxCell>
        <mxCell id="pk6v79Xam6D2UYTEoVHg-22" value="saldo" style="ellipse;whiteSpace=wrap;html=1;align=center;" vertex="1" parent="1">
          <mxGeometry x="850" y="160" width="100" height="40" as="geometry" />
        </mxCell>
        <mxCell id="pk6v79Xam6D2UYTEoVHg-27" style="edgeStyle=orthogonalEdgeStyle;rounded=0;orthogonalLoop=1;jettySize=auto;html=1;exitX=1;exitY=0.5;exitDx=0;exitDy=0;entryX=0;entryY=0.5;entryDx=0;entryDy=0;startArrow=none;startFill=0;endArrow=none;endFill=0;" edge="1" parent="1" source="pk6v79Xam6D2UYTEoVHg-25" target="pk6v79Xam6D2UYTEoVHg-20">
          <mxGeometry relative="1" as="geometry" />
        </mxCell>
        <mxCell id="pk6v79Xam6D2UYTEoVHg-25" value="Relationship" style="shape=rhombus;double=1;perimeter=rhombusPerimeter;whiteSpace=wrap;html=1;align=center;" vertex="1" parent="1">
          <mxGeometry x="390" y="230" width="120" height="60" as="geometry" />
        </mxCell>
        <mxCell id="pk6v79Xam6D2UYTEoVHg-49" style="edgeStyle=orthogonalEdgeStyle;rounded=0;orthogonalLoop=1;jettySize=auto;html=1;exitX=0;exitY=0.5;exitDx=0;exitDy=0;entryX=1;entryY=0.5;entryDx=0;entryDy=0;startArrow=none;startFill=0;endArrow=none;endFill=0;" edge="1" parent="1" source="pk6v79Xam6D2UYTEoVHg-28" target="pk6v79Xam6D2UYTEoVHg-47">
          <mxGeometry relative="1" as="geometry" />
        </mxCell>
        <mxCell id="pk6v79Xam6D2UYTEoVHg-28" value="clientes" style="whiteSpace=wrap;html=1;align=center;" vertex="1" parent="1">
          <mxGeometry x="627.5" y="440" width="100" height="40" as="geometry" />
        </mxCell>
        <mxCell id="pk6v79Xam6D2UYTEoVHg-29" value="1" style="text;html=1;align=center;verticalAlign=middle;resizable=0;points=[];autosize=1;strokeColor=none;fillColor=none;" vertex="1" parent="1">
          <mxGeometry x="85" y="245" width="30" height="30" as="geometry" />
        </mxCell>
        <mxCell id="pk6v79Xam6D2UYTEoVHg-31" value="N" style="text;html=1;align=center;verticalAlign=middle;resizable=0;points=[];autosize=1;strokeColor=none;fillColor=none;" vertex="1" parent="1">
          <mxGeometry x="725" y="235" width="30" height="30" as="geometry" />
        </mxCell>
        <mxCell id="pk6v79Xam6D2UYTEoVHg-33" style="edgeStyle=orthogonalEdgeStyle;rounded=0;orthogonalLoop=1;jettySize=auto;html=1;exitX=1;exitY=0.5;exitDx=0;exitDy=0;entryX=0.5;entryY=1;entryDx=0;entryDy=0;startArrow=none;startFill=0;endArrow=none;endFill=0;" edge="1" parent="1" source="pk6v79Xam6D2UYTEoVHg-32" target="pk6v79Xam6D2UYTEoVHg-20">
          <mxGeometry relative="1" as="geometry">
            <Array as="points">
              <mxPoint x="740" y="320" />
              <mxPoint x="740" y="280" />
            </Array>
          </mxGeometry>
        </mxCell>
        <mxCell id="pk6v79Xam6D2UYTEoVHg-34" style="edgeStyle=orthogonalEdgeStyle;rounded=0;orthogonalLoop=1;jettySize=auto;html=1;exitX=0.5;exitY=1;exitDx=0;exitDy=0;entryX=0.5;entryY=0;entryDx=0;entryDy=0;startArrow=none;startFill=0;endArrow=none;endFill=0;" edge="1" parent="1" source="pk6v79Xam6D2UYTEoVHg-32" target="pk6v79Xam6D2UYTEoVHg-28">
          <mxGeometry relative="1" as="geometry" />
        </mxCell>
        <mxCell id="pk6v79Xam6D2UYTEoVHg-32" value="Relationship" style="shape=rhombus;double=1;perimeter=rhombusPerimeter;whiteSpace=wrap;html=1;align=center;" vertex="1" parent="1">
          <mxGeometry x="615" y="320" width="125" height="60" as="geometry" />
        </mxCell>
        <mxCell id="pk6v79Xam6D2UYTEoVHg-42" style="edgeStyle=orthogonalEdgeStyle;rounded=0;orthogonalLoop=1;jettySize=auto;html=1;exitX=0.5;exitY=0;exitDx=0;exitDy=0;entryX=0;entryY=1;entryDx=0;entryDy=0;startArrow=none;startFill=0;endArrow=none;endFill=0;" edge="1" parent="1" source="pk6v79Xam6D2UYTEoVHg-35" target="pk6v79Xam6D2UYTEoVHg-28">
          <mxGeometry relative="1" as="geometry" />
        </mxCell>
        <mxCell id="pk6v79Xam6D2UYTEoVHg-35" value="&lt;span style=&quot;border-bottom: 1px dotted&quot;&gt;endereço&lt;/span&gt;" style="ellipse;whiteSpace=wrap;html=1;align=center;" vertex="1" parent="1">
          <mxGeometry x="500" y="540" width="100" height="40" as="geometry" />
        </mxCell>
        <mxCell id="pk6v79Xam6D2UYTEoVHg-43" style="edgeStyle=orthogonalEdgeStyle;rounded=0;orthogonalLoop=1;jettySize=auto;html=1;exitX=0.5;exitY=0;exitDx=0;exitDy=0;entryX=0.5;entryY=1;entryDx=0;entryDy=0;startArrow=none;startFill=0;endArrow=none;endFill=0;" edge="1" parent="1" source="pk6v79Xam6D2UYTEoVHg-36" target="pk6v79Xam6D2UYTEoVHg-28">
          <mxGeometry relative="1" as="geometry" />
        </mxCell>
        <mxCell id="pk6v79Xam6D2UYTEoVHg-36" value="cpf" style="ellipse;whiteSpace=wrap;html=1;align=center;" vertex="1" parent="1">
          <mxGeometry x="627.5" y="540" width="100" height="40" as="geometry" />
        </mxCell>
        <mxCell id="pk6v79Xam6D2UYTEoVHg-45" style="edgeStyle=orthogonalEdgeStyle;rounded=0;orthogonalLoop=1;jettySize=auto;html=1;exitX=0.5;exitY=0;exitDx=0;exitDy=0;entryX=1;entryY=1;entryDx=0;entryDy=0;startArrow=none;startFill=0;endArrow=none;endFill=0;" edge="1" parent="1" source="pk6v79Xam6D2UYTEoVHg-37" target="pk6v79Xam6D2UYTEoVHg-28">
          <mxGeometry relative="1" as="geometry" />
        </mxCell>
        <mxCell id="pk6v79Xam6D2UYTEoVHg-37" value="&lt;span style=&quot;border-bottom: 1px dotted&quot;&gt;nome_cli&lt;/span&gt;" style="ellipse;whiteSpace=wrap;html=1;align=center;" vertex="1" parent="1">
          <mxGeometry x="755" y="540" width="100" height="40" as="geometry" />
        </mxCell>
        <mxCell id="pk6v79Xam6D2UYTEoVHg-41" style="edgeStyle=orthogonalEdgeStyle;rounded=0;orthogonalLoop=1;jettySize=auto;html=1;exitX=0;exitY=0.5;exitDx=0;exitDy=0;entryX=1;entryY=0.5;entryDx=0;entryDy=0;startArrow=none;startFill=0;endArrow=none;endFill=0;" edge="1" parent="1" source="pk6v79Xam6D2UYTEoVHg-38" target="pk6v79Xam6D2UYTEoVHg-28">
          <mxGeometry relative="1" as="geometry" />
        </mxCell>
        <mxCell id="pk6v79Xam6D2UYTEoVHg-38" value="&lt;span style=&quot;border-bottom: 1px dotted&quot;&gt;cod_cli&lt;/span&gt;" style="ellipse;whiteSpace=wrap;html=1;align=center;" vertex="1" parent="1">
          <mxGeometry x="750" y="440" width="100" height="40" as="geometry" />
        </mxCell>
        <mxCell id="pk6v79Xam6D2UYTEoVHg-40" style="edgeStyle=orthogonalEdgeStyle;rounded=0;orthogonalLoop=1;jettySize=auto;html=1;exitX=1;exitY=0.5;exitDx=0;exitDy=0;entryX=0;entryY=0.5;entryDx=0;entryDy=0;startArrow=none;startFill=0;endArrow=none;endFill=0;" edge="1" parent="1" source="pk6v79Xam6D2UYTEoVHg-39" target="pk6v79Xam6D2UYTEoVHg-28">
          <mxGeometry relative="1" as="geometry">
            <Array as="points">
              <mxPoint x="610" y="400" />
              <mxPoint x="610" y="440" />
              <mxPoint x="628" y="440" />
            </Array>
          </mxGeometry>
        </mxCell>
        <mxCell id="pk6v79Xam6D2UYTEoVHg-39" value="&lt;span style=&quot;border-bottom: 1px dotted&quot;&gt;telefone&lt;/span&gt;" style="ellipse;whiteSpace=wrap;html=1;align=center;" vertex="1" parent="1">
          <mxGeometry x="490" y="380" width="100" height="40" as="geometry" />
        </mxCell>
        <mxCell id="pk6v79Xam6D2UYTEoVHg-46" value="1..N" style="text;html=1;align=center;verticalAlign=middle;resizable=0;points=[];autosize=1;strokeColor=none;fillColor=none;" vertex="1" parent="1">
          <mxGeometry x="75" y="275" width="50" height="30" as="geometry" />
        </mxCell>
        <mxCell id="pk6v79Xam6D2UYTEoVHg-47" value="Relationship" style="shape=rhombus;double=1;perimeter=rhombusPerimeter;whiteSpace=wrap;html=1;align=center;" vertex="1" parent="1">
          <mxGeometry x="340" y="430" width="120" height="60" as="geometry" />
        </mxCell>
        <mxCell id="pk6v79Xam6D2UYTEoVHg-50" value="1" style="text;html=1;align=center;verticalAlign=middle;resizable=0;points=[];autosize=1;strokeColor=none;fillColor=none;" vertex="1" parent="1">
          <mxGeometry x="165" y="415" width="30" height="30" as="geometry" />
        </mxCell>
        <mxCell id="pk6v79Xam6D2UYTEoVHg-51" value="1" style="text;html=1;align=center;verticalAlign=middle;resizable=0;points=[];autosize=1;strokeColor=none;fillColor=none;" vertex="1" parent="1">
          <mxGeometry x="215" y="455" width="30" height="30" as="geometry" />
        </mxCell>
        <mxCell id="pk6v79Xam6D2UYTEoVHg-52" value="1..N" style="text;html=1;align=center;verticalAlign=middle;resizable=0;points=[];autosize=1;strokeColor=none;fillColor=none;" vertex="1" parent="1">
          <mxGeometry x="595" y="455" width="50" height="30" as="geometry" />
        </mxCell>
        <mxCell id="pk6v79Xam6D2UYTEoVHg-53" value="1" style="text;html=1;align=center;verticalAlign=middle;resizable=0;points=[];autosize=1;strokeColor=none;fillColor=none;" vertex="1" parent="1">
          <mxGeometry x="675" y="415" width="30" height="30" as="geometry" />
        </mxCell>
        <mxCell id="pk6v79Xam6D2UYTEoVHg-54" value="N" style="text;html=1;align=center;verticalAlign=middle;resizable=0;points=[];autosize=1;strokeColor=none;fillColor=none;" vertex="1" parent="1">
          <mxGeometry x="745" y="275" width="30" height="30" as="geometry" />
        </mxCell>
      </root>
    </mxGraphModel>
  </diagram>
</mxfile>
